<?xml version="1.0" standalone="no"?>
<!DOCTYPE svg PUBLIC "-//W3C//DTD SVG 20010904//EN"
 "http://www.w3.org/TR/2001/REC-SVG-20010904/DTD/svg10.dtd">
<svg version="1.0" xmlns="http://www.w3.org/2000/svg"
 width="500.000000pt" height="500.000000pt" viewBox="0 0 500.000000 500.000000"
 preserveAspectRatio="xMidYMid meet">

<g transform="translate(0.000000,500.000000) scale(0.100000,-0.100000)"
fill="#000000" stroke="none">
<path d="M1610 2724 l0 -346 173 4 c167 3 173 4 219 30 114 68 130 221 31 308
l-35 31 25 27 c62 66 56 167 -13 233 -50 48 -100 59 -264 59 l-136 0 0 -346z
m314 207 c27 -26 34 -67 16 -101 -14 -26 -63 -40 -141 -40 l-69 0 0 86 0 86
84 -3 c73 -4 88 -7 110 -28z m23 -275 c22 -19 28 -32 28 -66 0 -34 -6 -47 -28
-66 -25 -22 -37 -24 -123 -24 l-94 0 0 90 0 90 94 0 c86 0 98 -2 123 -24z"/>
<path d="M2210 2755 c0 -209 4 -322 11 -338 14 -31 48 -47 97 -47 73 0 82 7
82 61 0 47 -1 48 -32 51 l-33 3 -3 293 -2 292 -60 0 -60 0 0 -315z"/>
<path d="M3384 2889 c-31 -34 -48 -39 -90 -24 -76 27 -152 13 -211 -38 -63
-55 -79 -126 -44 -202 17 -38 17 -41 0 -65 -30 -42 -29 -116 2 -149 l22 -23
-28 -22 c-25 -20 -27 -27 -23 -64 8 -53 39 -97 91 -125 59 -31 203 -32 262 -1
54 28 85 76 85 131 0 94 -43 127 -198 150 -109 16 -132 26 -132 54 0 19 4 20
43 13 150 -25 257 46 257 172 0 27 -5 56 -10 64 -7 11 -1 22 26 45 l35 30 -28
37 c-15 21 -31 37 -34 38 -3 0 -14 -9 -25 -21z m-99 -132 c24 -34 19 -94 -10
-122 -31 -31 -66 -32 -102 -1 -50 43 -30 139 31 148 36 6 66 -4 81 -25z m-53
-411 c99 -16 108 -20 108 -45 0 -33 -36 -54 -93 -55 -94 -1 -153 41 -126 90 7
13 15 24 18 24 3 0 45 -6 93 -14z"/>
<path d="M2630 2871 c-118 -38 -181 -125 -181 -246 0 -150 98 -250 246 -250
147 0 246 100 246 249 0 104 -46 182 -135 228 -43 22 -136 32 -176 19z m128
-115 c41 -21 57 -60 57 -135 0 -53 -5 -72 -23 -98 -45 -64 -149 -64 -194 0
-30 42 -33 158 -6 197 35 49 110 65 166 36z"/>
<path d="M2095 2121 l40 -6 6 -75 5 -75 2 77 2 77 43 4 c23 2 2 4 -48 4 -57 0
-76 -2 -50 -6z"/>
<path d="M2270 2050 l0 -80 78 2 77 2 -72 3 -73 4 0 29 c0 29 0 29 68 33 l67
3 -67 2 -68 2 0 35 0 34 73 4 72 3 -77 2 -78 2 0 -80z"/>
<path d="M2489 2111 c-18 -14 -24 -29 -24 -61 0 -58 28 -80 102 -80 45 0 58 4
80 26 14 14 22 28 18 32 -3 4 -15 -4 -25 -18 -16 -21 -27 -25 -75 -25 -63 0
-85 17 -85 65 0 48 22 65 85 65 48 0 60 -4 76 -24 14 -17 19 -19 19 -8 0 45
-125 66 -171 28z"/>
<path d="M2733 2050 c0 -47 2 -68 4 -47 l4 37 75 0 74 0 0 -35 c0 -19 5 -35
10 -35 6 0 10 33 10 80 0 47 -4 80 -10 80 -5 0 -10 -16 -10 -35 l0 -35 -74 0
-75 0 -4 38 c-2 20 -4 -1 -4 -48z"/>
</g>
</svg>
